<?xml version="1.0" encoding="UTF-8" standalone="no"?>
<svg
   width="245.487058"
   height="283.464567"
   viewBox="0 0 245.487058 283.464567"
   version="1.1"
   xmlns="http://www.w3.org/2000/svg">
  <title>AWS Certified Generative AI Developer - Professional (custom, no oficial)</title>
  <defs>
    <linearGradient id="gai-pro-gradient" gradientUnits="userSpaceOnUse" x1="30" y1="45" x2="215" y2="260">
      <stop offset="0" stop-color="#068297"/>
      <stop offset="1" stop-color="#015b7b"/>
    </linearGradient>
  </defs>

  <!-- Borde exterior del hexágono -->
  <path fill="#1cc9f7" d="M 245.488281 70.867188 L 122.742188 0 L 0 70.867188 L 0 212.597656 L 122.742188 283.464844 L 245.488281 212.597656 Z"/>
  <!-- Cuerpo interior con degradado -->
  <path fill="url(#gai-pro-gradient)" d="M 6.460938 74.59375 L 6.460938 208.871094 L 122.742188 276.003906 L 239.027344 208.871094 L 239.027344 74.59375 L 122.742188 7.460938 Z"/>

  <!-- Líneas divisorias -->
  <path fill="none" stroke="#ffffff" stroke-width="1" d="M 52.234 98.789 H 193.254"/>
  <path fill="none" stroke="#ffffff" stroke-width="1" d="M 52.234 177.141 H 193.254"/>

  <!-- Icono hexagonal naranja con check -->
  <path fill="#ff9900" d="M 161.585938 48.445312 L 151.84375 42.816406 L 142.097656 48.445312 L 142.097656 59.695312 L 151.84375 65.324219 L 161.585938 59.695312 Z"/>
  <path fill="#ffffff" d="M 157.285156 51.035156 L 156.183594 49.933594 C 156.082031 49.832031 155.917969 49.832031 155.824219 49.933594 L 149.296875 56.460938 L 147.753906 54.917969 C 147.652344 54.816406 147.492188 54.816406 147.394531 54.917969 L 146.292969 56.019531 C 146.191406 56.125 146.191406 56.285156 146.292969 56.382812 L 149.019531 59.109375 C 149.175781 59.265625 149.433594 59.265625 149.597656 59.109375 L 157.296875 51.398438 C 157.402344 51.292969 157.402344 51.132812 157.296875 51.035156 Z"/>

  <!-- Wordmark "aws certified", alineado con el ícono de check -->
  <text x="136.1" y="61" font-family="'Segoe UI', -apple-system, BlinkMacSystemFont, Roboto, Helvetica, Arial, sans-serif" font-size="22" font-weight="700" fill="#ffffff" text-anchor="end" textLength="42" lengthAdjust="spacingAndGlyphs">aws</text>
  <text x="122.742188" y="85" font-family="'Segoe UI', -apple-system, BlinkMacSystemFont, Roboto, Helvetica, Arial, sans-serif" font-size="16" font-weight="400" fill="#ffffff" text-anchor="middle" textLength="80" lengthAdjust="spacingAndGlyphs">certified</text>

  <!-- Título de la certificación, ancho forzado para no salirse del hexágono -->
  <text x="122.742188" y="129" font-family="'Segoe UI', -apple-system, BlinkMacSystemFont, Roboto, Helvetica, Arial, sans-serif" font-size="20" font-weight="800" fill="#ffffff" text-anchor="middle" textLength="165" lengthAdjust="spacingAndGlyphs">Generative AI</text>
  <text x="122.742188" y="157" font-family="'Segoe UI', -apple-system, BlinkMacSystemFont, Roboto, Helvetica, Arial, sans-serif" font-size="20" font-weight="800" fill="#ffffff" text-anchor="middle" textLength="108" lengthAdjust="spacingAndGlyphs">Developer</text>

  <!-- Nivel -->
  <text x="122.742188" y="204" font-family="'Segoe UI', -apple-system, BlinkMacSystemFont, Roboto, Helvetica, Arial, sans-serif" font-size="15" font-weight="700" letter-spacing="2" fill="#ffffff" text-anchor="middle" textLength="138" lengthAdjust="spacingAndGlyphs">PROFESSIONAL</text>
</svg>
